<?xml version="1.0" standalone="no"?>
<!DOCTYPE svg PUBLIC "-//W3C//DTD SVG 20010904//EN"
 "http://www.w3.org/TR/2001/REC-SVG-20010904/DTD/svg10.dtd">
<svg version="1.0" xmlns="http://www.w3.org/2000/svg"
 width="614.000000pt" height="614.000000pt" viewBox="0 0 614.000000 614.000000"
 preserveAspectRatio="xMidYMid meet">
<metadata>
Created by potrace 1.14, written by Peter Selinger 2001-2017
</metadata>
<g transform="translate(0.000000,614.000000) scale(0.100000,-0.100000)"
fill="#000000" stroke="none">
<path d="M2393 5476 c-28 -13 -134 -80 -235 -149 -100 -68 -235 -159 -298
-201 -200 -135 -235 -181 -234 -311 0 -97 8 -116 127 -287 48 -70 87 -133 87
-141 0 -8 -58 -53 -130 -101 -116 -77 -131 -91 -141 -126 -10 -33 -9 -44 8
-77 46 -89 101 -176 240 -381 80 -119 188 -278 238 -352 157 -232 366 -540
448 -660 43 -63 110 -163 149 -222 77 -116 114 -145 170 -134 24 5 275 169
643 421 50 34 176 120 280 190 105 71 246 167 315 214 69 46 179 120 245 164
144 95 165 117 165 175 0 39 -14 63 -136 245 -75 111 -148 216 -163 232 -14
17 -84 117 -156 223 -71 106 -209 309 -305 451 -96 142 -229 338 -294 436
-126 185 -153 212 -208 201 -15 -3 -82 -42 -147 -86 -65 -44 -125 -82 -133
-85 -11 -4 -40 32 -103 127 -48 73 -102 148 -119 166 -78 85 -216 115 -313 68z
m185 -100 c15 -8 39 -27 53 -43 46 -51 200 -286 192 -293 -4 -4 -114 -78 -243
-165 -224 -151 -346 -233 -542 -368 -49 -32 -94 -57 -101 -54 -15 6 -183 256
-203 302 -19 46 -18 68 7 124 13 32 35 59 67 83 62 47 567 388 606 410 38 21
127 23 164 4z"/>
<path d="M2244 1190 c-59 -24 -126 -78 -158 -129 -52 -82 -60 -254 -17 -344
29 -59 98 -128 160 -159 39 -20 61 -23 151 -23 98 1 108 3 154 30 118 69 178
169 179 296 0 42 -4 89 -10 105 -6 16 -14 41 -17 55 -9 39 -87 121 -148 154
-46 26 -65 30 -148 32 -76 3 -105 -1 -146 -17z"/>
<path d="M3867 1190 c-106 -41 -178 -126 -197 -234 -25 -139 5 -250 92 -332
76 -74 117 -89 238 -89 98 0 109 2 159 30 137 76 213 252 166 385 -8 23 -12
46 -10 51 8 11 -35 76 -76 118 -19 18 -61 46 -94 62 -52 25 -71 29 -145 29
-58 -1 -100 -7 -133 -20z"/>
</g>
</svg>
