<svg width="418" height="349" viewBox="0 0 418 349" fill="none" xmlns="http://www.w3.org/2000/svg">
<g clip-path="url(#clip0_14:10)">
<path d="M172.235 82.1251H170.337V30.1068C170.337 26.1531 169.559 22.2381 168.046 18.5854C166.534 14.9327 164.318 11.6137 161.523 8.81803C158.729 6.02235 155.412 3.80469 151.761 2.29169C148.11 0.778685 144.197 -4.28868e-05 140.245 -3.05174e-05H30.0919C26.1402 -4.28868e-05 22.2272 0.778685 18.5763 2.29169C14.9253 3.80469 11.608 6.02235 8.81372 8.81803C6.01942 11.6137 3.80286 14.9327 2.2906 18.5854C0.778338 22.2381 -6.18159e-06 26.1531 0 30.1068V315.483C-3.70895e-06 319.437 0.778344 323.352 2.2906 327.005C3.80287 330.657 6.01943 333.976 8.81372 336.772C11.608 339.568 14.9253 341.785 18.5763 343.298C22.2272 344.811 26.1402 345.59 30.0919 345.59H140.245C144.197 345.59 148.11 344.811 151.761 343.298C155.412 341.785 158.729 339.568 161.523 336.772C164.318 333.976 166.534 330.657 168.046 327.005C169.559 323.352 170.337 319.437 170.337 315.483V119.153H172.235V82.1251Z" fill="#E6E6E6"/>
<path d="M141.459 7.83276H127.081C127.742 9.45471 127.994 11.2145 127.816 12.957C127.637 14.6995 127.033 16.3713 126.056 17.8252C125.08 19.2791 123.761 20.4703 122.215 21.2941C120.67 22.1178 118.946 22.5487 117.196 22.5488H54.0903C52.3395 22.5487 50.6156 22.1178 49.0704 21.2941C47.5253 20.4703 46.2063 19.2791 45.2298 17.8252C44.2532 16.3714 43.649 14.6995 43.4703 12.957C43.2916 11.2145 43.5441 9.45471 44.2053 7.83276H30.7756C27.8245 7.83276 24.9023 8.41431 22.1759 9.5442C19.4494 10.6741 16.9721 12.3302 14.8853 14.418C12.7986 16.5058 11.1433 18.9843 10.0139 21.7121C8.8846 24.4399 8.30333 27.3636 8.30333 30.3161V315.274C8.30333 318.227 8.8846 321.15 10.0139 323.878C11.1433 326.606 12.7986 329.084 14.8853 331.172C16.9721 333.26 19.4494 334.916 22.1758 336.046C24.9023 337.176 27.8245 337.757 30.7756 337.757H141.459C144.41 337.757 147.333 337.176 150.059 336.046C152.785 334.916 155.263 333.26 157.35 331.172C159.436 329.084 161.092 326.606 162.221 323.878C163.35 321.15 163.932 318.227 163.932 315.274V30.3161C163.932 27.3636 163.35 24.4399 162.221 21.7121C161.092 18.9843 159.436 16.5058 157.35 14.418C155.263 12.3302 152.785 10.6741 150.059 9.5442C147.333 8.41431 144.41 7.83276 141.459 7.83276V7.83276Z" fill="white"/>
<path d="M53.508 65.7616H46.8994C46.667 65.7616 46.4442 65.854 46.2798 66.0184C46.1155 66.1827 46.0232 66.4057 46.0232 66.6382V69.5403C46.0232 69.7728 46.1155 69.9958 46.2798 70.1602C46.4442 70.3246 46.667 70.4169 46.8994 70.4169H47.9945V74.7653H52.4128V70.4169H53.508C53.7403 70.4169 53.9632 70.3246 54.1275 70.1602C54.2918 69.9958 54.3841 69.7728 54.3841 69.5403V66.6382C54.3841 66.4057 54.2918 66.1827 54.1275 66.0184C53.9632 65.854 53.7403 65.7616 53.508 65.7616V65.7616Z" fill="#E6E6E6"/>
<path d="M60.1272 92.322C56.0799 86.3967 54.0108 79.3419 54.2164 72.1682C54.2201 72.0026 54.1664 71.8409 54.0644 71.7105C53.9625 71.5801 53.8185 71.489 53.6571 71.4527V70.1987H46.6775V71.4353H46.5814C46.3914 71.4355 46.2094 71.5113 46.0752 71.6458C45.9411 71.7804 45.8659 71.9627 45.8661 72.1528C45.8662 72.1702 45.8668 72.1875 45.8681 72.2049C46.418 79.8736 44.5612 86.7507 40.2979 92.8363C40.0526 93.186 39.9272 93.6059 39.9407 94.033L40.7039 117.652C40.7222 118.179 40.9432 118.678 41.3207 119.046C41.6983 119.414 42.2032 119.621 42.73 119.625H58.5167C59.0495 119.621 59.5597 119.409 59.9384 119.034C60.317 118.658 60.5344 118.15 60.544 117.617L60.8381 94.6851C60.8468 93.8434 60.5988 93.019 60.1272 92.322Z" fill="#E6E6E6"/>
<path d="M57.6281 100.167H43.887C43.6836 100.167 43.4826 100.211 43.2978 100.296C43.113 100.381 42.9487 100.505 42.8163 100.66C42.6839 100.814 42.5864 100.996 42.5305 101.191C42.4746 101.387 42.4617 101.592 42.4927 101.794L44.5691 115.297H56.4925L59.0147 101.839C59.0529 101.635 59.0457 101.425 58.9937 101.225C58.9417 101.024 58.8461 100.837 58.7137 100.678C58.5813 100.518 58.4154 100.39 58.2278 100.301C58.0401 100.213 57.8354 100.167 57.6281 100.167V100.167Z" fill="white"/>
<path d="M127.074 136.515H120.466C120.233 136.515 120.01 136.608 119.846 136.772C119.682 136.936 119.589 137.159 119.589 137.392V140.294C119.589 140.526 119.682 140.749 119.846 140.914C120.01 141.078 120.233 141.171 120.466 141.171H121.561V145.519H125.979V141.171H127.074C127.307 141.171 127.529 141.078 127.694 140.914C127.858 140.749 127.95 140.526 127.95 140.294V137.392C127.95 137.159 127.858 136.936 127.694 136.772C127.529 136.608 127.307 136.515 127.074 136.515Z" fill="#E6E6E6"/>
<path d="M133.693 163.076C129.646 157.15 127.577 150.096 127.783 142.922C127.786 142.756 127.733 142.595 127.631 142.464C127.529 142.334 127.385 142.243 127.223 142.206V140.952H120.244V142.189H120.148C120.054 142.189 119.96 142.208 119.874 142.244C119.787 142.28 119.708 142.333 119.642 142.399C119.575 142.466 119.522 142.545 119.487 142.632C119.451 142.719 119.432 142.812 119.432 142.906C119.432 142.924 119.433 142.941 119.434 142.959C119.984 150.627 118.127 157.504 113.864 163.59C113.619 163.94 113.493 164.36 113.507 164.787L114.27 188.406C114.288 188.932 114.509 189.432 114.887 189.8C115.265 190.167 115.769 190.375 116.296 190.379H132.083C132.616 190.375 133.126 190.162 133.505 189.787C133.883 189.412 134.101 188.904 134.11 188.371L134.404 165.439C134.413 164.597 134.165 163.773 133.693 163.076V163.076Z" fill="#E6E6E6"/>
<path d="M131.194 170.921H117.453C117.25 170.921 117.049 170.965 116.864 171.05C116.679 171.135 116.515 171.259 116.383 171.413C116.25 171.568 116.153 171.749 116.097 171.945C116.041 172.141 116.028 172.346 116.059 172.547L118.135 186.051H130.059L132.581 172.593C132.619 172.389 132.612 172.179 132.56 171.978C132.508 171.778 132.412 171.591 132.28 171.431C132.148 171.272 131.982 171.143 131.794 171.055C131.606 170.967 131.402 170.921 131.194 170.921H131.194Z" fill="white"/>
<path d="M44.2172 236.54H41.0824C40.9722 236.54 40.8665 236.584 40.7885 236.662C40.7106 236.74 40.6668 236.846 40.6668 236.956V238.332C40.6668 238.443 40.7106 238.549 40.7885 238.626C40.8665 238.704 40.9722 238.748 41.0824 238.748H41.6019V240.811H43.6977V238.748H44.2172C44.3274 238.748 44.4331 238.704 44.511 238.626C44.589 238.549 44.6328 238.443 44.6328 238.332V236.956C44.6328 236.846 44.589 236.74 44.511 236.662C44.4331 236.584 44.3274 236.54 44.2172 236.54Z" fill="#E6E6E6"/>
<path d="M47.357 249.139C45.4371 246.328 44.4557 242.982 44.5532 239.579C44.555 239.5 44.5295 239.424 44.4811 239.362C44.4328 239.3 44.3645 239.257 44.2879 239.24V238.645H40.9772V239.231H40.9316C40.887 239.231 40.8428 239.24 40.8016 239.257C40.7604 239.275 40.723 239.3 40.6915 239.331C40.66 239.363 40.635 239.4 40.618 239.442C40.601 239.483 40.5922 239.527 40.5923 239.572C40.5923 239.58 40.5926 239.588 40.5932 239.596C40.8988 243.069 39.9625 246.537 37.951 249.383C37.8347 249.549 37.7752 249.748 37.7816 249.95L38.1436 261.154C38.1523 261.404 38.2571 261.641 38.4362 261.815C38.6153 261.99 38.8548 262.088 39.1047 262.09H46.593C46.8458 262.088 47.0878 261.987 47.2674 261.809C47.447 261.631 47.5501 261.39 47.5547 261.138L47.6942 250.26C47.6983 249.861 47.5807 249.469 47.357 249.139V249.139Z" fill="#E6E6E6"/>
<path d="M46.2792 253.257H39.1341V256.832H46.2792V253.257Z" fill="white"/>
<path d="M58.8095 236.54H55.6747C55.5645 236.54 55.4588 236.584 55.3809 236.662C55.3029 236.74 55.2591 236.846 55.2591 236.956V238.332C55.2591 238.443 55.3029 238.549 55.3809 238.626C55.4588 238.704 55.5645 238.748 55.6747 238.748H56.1942V240.811H58.29V238.748H58.8095C58.9197 238.748 59.0254 238.704 59.1034 238.626C59.1813 238.549 59.2251 238.443 59.2251 238.332V236.956C59.2251 236.846 59.1813 236.74 59.1034 236.662C59.0254 236.584 58.9197 236.54 58.8095 236.54Z" fill="#E6E6E6"/>
<path d="M61.9493 249.139C60.0295 246.328 59.048 242.982 59.1455 239.579C59.1473 239.5 59.1218 239.424 59.0735 239.362C59.0251 239.3 58.9568 239.257 58.8802 239.24V238.645H55.5695V239.231H55.5239C55.4793 239.231 55.4351 239.24 55.3939 239.257C55.3527 239.275 55.3153 239.3 55.2838 239.331C55.2523 239.363 55.2273 239.4 55.2103 239.442C55.1933 239.483 55.1846 239.527 55.1846 239.572C55.1846 239.58 55.185 239.588 55.1856 239.596C55.4912 243.069 54.5548 246.537 52.5434 249.383C52.427 249.549 52.3675 249.748 52.3739 249.95L52.7359 261.154C52.7446 261.404 52.8494 261.641 53.0285 261.815C53.2076 261.99 53.4471 262.088 53.697 262.09H61.1853C61.4381 262.088 61.6801 261.987 61.8597 261.809C62.0394 261.631 62.1424 261.39 62.147 261.138L62.2865 250.26C62.2907 249.861 62.173 249.469 61.9493 249.139Z" fill="#E6E6E6"/>
<path d="M60.8716 253.257H53.7265V256.832H60.8716V253.257Z" fill="white"/>
<path d="M73.4018 236.54H70.2671C70.1569 236.54 70.0511 236.584 69.9732 236.662C69.8953 236.74 69.8515 236.846 69.8515 236.956V238.332C69.8515 238.443 69.8953 238.549 69.9732 238.626C70.0511 238.704 70.1569 238.748 70.2671 238.748H70.7865V240.811H72.8824V238.748H73.4018C73.5121 238.748 73.6178 238.704 73.6957 238.626C73.7737 238.549 73.8174 238.443 73.8174 238.332V236.956C73.8174 236.846 73.7737 236.74 73.6957 236.662C73.6178 236.584 73.5121 236.54 73.4018 236.54Z" fill="#E6E6E6"/>
<path d="M76.5416 249.139C74.6218 246.328 73.6404 242.982 73.7379 239.579C73.7396 239.5 73.7142 239.424 73.6658 239.362C73.6174 239.3 73.5492 239.257 73.4726 239.24V238.645H70.1619V239.231H70.1162C70.0716 239.231 70.0275 239.24 69.9863 239.257C69.9451 239.275 69.9077 239.3 69.8762 239.331C69.8447 239.363 69.8197 239.4 69.8027 239.442C69.7857 239.483 69.7769 239.527 69.777 239.572C69.777 239.58 69.7773 239.588 69.7779 239.596C70.0835 243.069 69.1472 246.537 67.1357 249.383C67.0193 249.549 66.9599 249.748 66.9663 249.95L67.3283 261.154C67.337 261.404 67.4418 261.641 67.6209 261.815C67.8 261.99 68.0394 262.088 68.2894 262.09H75.7777C76.0305 262.088 76.2724 261.987 76.4521 261.809C76.6317 261.631 76.7348 261.39 76.7394 261.138L76.8789 250.26C76.883 249.861 76.7654 249.469 76.5416 249.139Z" fill="#E6E6E6"/>
<path d="M75.4639 253.257H68.3188V256.832H75.4639V253.257Z" fill="white"/>
<path d="M115.594 209.168H108.985C108.87 209.168 108.756 209.191 108.65 209.235C108.543 209.279 108.447 209.344 108.365 209.425C108.284 209.506 108.22 209.603 108.176 209.709C108.132 209.816 108.109 209.93 108.109 210.045V212.947C108.109 213.18 108.201 213.402 108.365 213.567C108.53 213.731 108.753 213.824 108.985 213.824H110.08V218.172H114.498V213.824H115.594C115.826 213.824 116.049 213.731 116.213 213.567C116.377 213.402 116.47 213.18 116.47 212.947V210.045C116.47 209.93 116.447 209.816 116.403 209.709C116.359 209.603 116.295 209.506 116.213 209.425C116.132 209.344 116.035 209.279 115.929 209.235C115.823 209.191 115.709 209.168 115.594 209.168V209.168Z" fill="#E6E6E6"/>
<path d="M122.213 235.729C118.165 229.803 116.096 222.749 116.302 215.575C116.306 215.409 116.252 215.248 116.15 215.117C116.048 214.987 115.904 214.896 115.743 214.859V213.605H108.763V214.842H108.667C108.573 214.842 108.48 214.861 108.393 214.897C108.306 214.933 108.227 214.986 108.161 215.053C108.094 215.119 108.042 215.198 108.006 215.285C107.97 215.372 107.952 215.465 107.952 215.559C107.952 215.577 107.952 215.594 107.954 215.612C108.504 223.28 106.647 230.157 102.384 236.243C102.138 236.593 102.013 237.013 102.026 237.44L102.79 261.059C102.808 261.585 103.029 262.085 103.406 262.453C103.784 262.82 104.289 263.028 104.816 263.032H120.602C121.135 263.028 121.645 262.815 122.024 262.44C122.403 262.065 122.62 261.557 122.63 261.024L122.924 238.092C122.932 237.25 122.684 236.426 122.213 235.729Z" fill="#E6E6E6"/>
<path d="M119.714 243.574H105.973C105.769 243.574 105.568 243.618 105.383 243.703C105.199 243.788 105.034 243.912 104.902 244.067C104.769 244.221 104.672 244.402 104.616 244.598C104.56 244.794 104.547 244.999 104.578 245.2L106.655 258.704H118.578L121.1 245.246C121.139 245.042 121.131 244.832 121.079 244.631C121.027 244.431 120.932 244.244 120.799 244.084C120.667 243.925 120.501 243.796 120.313 243.708C120.126 243.62 119.921 243.574 119.714 243.574V243.574Z" fill="white"/>
<path d="M119.201 122.666H79.8079C82.562 107.768 81.9284 89.7784 79.8079 70.4317H119.201C117.137 89.7785 116.52 107.768 119.201 122.666Z" fill="#E6E6E6"/>
<path d="M99.742 104.621C104.984 104.621 109.234 100.369 109.234 95.1243C109.234 89.8791 104.984 85.6271 99.742 85.6271C94.4994 85.6271 90.2495 89.8791 90.2495 95.1243C90.2495 100.369 94.4994 104.621 99.742 104.621Z" fill="white"/>
<path d="M83.1302 191.995H43.7367C46.4908 177.097 45.8572 159.107 43.7367 139.761H83.1302C81.0661 159.108 80.4493 177.097 83.1302 191.995Z" fill="#E6E6E6"/>
<path d="M63.6708 173.95C68.9133 173.95 73.1632 169.698 73.1632 164.453C73.1632 159.208 68.9133 154.956 63.6708 154.956C58.4282 154.956 54.1783 159.208 54.1783 164.453C54.1783 169.698 58.4282 173.95 63.6708 173.95Z" fill="white"/>
<path d="M141.509 125.99H102.115C104.869 111.092 104.236 93.1024 102.115 73.7557H141.509C139.444 93.1025 138.828 111.092 141.509 125.99Z" fill="#E6E6E6"/>
<path d="M122.049 107.945C127.292 107.945 131.542 103.693 131.542 98.4482C131.542 93.2031 127.292 88.9511 122.049 88.9511C116.807 88.9511 112.557 93.2031 112.557 98.4482C112.557 103.693 116.807 107.945 122.049 107.945Z" fill="white"/>
<path d="M141.509 123.616H102.115C104.869 108.718 104.236 90.7281 102.115 71.3814H141.509C139.444 90.7282 138.828 108.718 141.509 123.616Z" fill="#E6E6E6"/>
<path d="M122.049 105.571C127.292 105.571 131.542 101.319 131.542 96.074C131.542 90.8289 127.292 86.5768 122.049 86.5768C116.807 86.5768 112.557 90.8289 112.557 96.074C112.557 101.319 116.807 105.571 122.049 105.571Z" fill="white"/>
<path d="M141.509 125.99H102.115C104.869 111.092 104.236 93.1024 102.115 73.7557H141.509C139.444 93.1025 138.828 111.092 141.509 125.99Z" fill="#E6E6E6"/>
<path d="M122.049 107.945C127.292 107.945 131.542 103.693 131.542 98.4482C131.542 93.2031 127.292 88.9511 122.049 88.9511C116.807 88.9511 112.557 93.2031 112.557 98.4482C112.557 103.693 116.807 107.945 122.049 107.945Z" fill="white"/>
<path d="M150.526 119.817H21.4295V134.063H150.526V119.817Z" fill="#E6E6E6"/>
<path d="M150.526 190.57H21.4295V204.816H150.526V190.57Z" fill="#E6E6E6"/>
<path d="M150.526 261.324H21.4295V275.57H150.526V261.324Z" fill="#E6E6E6"/>
<path d="M375.096 319.118L342.934 296.359C353.781 285.787 363.647 270.734 373.082 253.714L405.244 276.473C392.392 291.075 381.506 305.406 375.096 319.118Z" fill="#6C63FF"/>
<path d="M375.105 294.887C380.347 294.887 384.597 290.635 384.597 285.39C384.597 280.145 380.347 275.893 375.105 275.893C369.862 275.893 365.612 280.145 365.612 285.39C365.612 290.635 369.862 294.887 375.105 294.887Z" fill="white"/>
<path d="M219.95 215.263H216.42C216.296 215.263 216.176 215.312 216.089 215.4C216.001 215.488 215.952 215.607 215.952 215.731V217.282C215.952 217.343 215.964 217.404 215.987 217.461C216.011 217.518 216.045 217.569 216.089 217.613C216.132 217.656 216.184 217.691 216.241 217.714C216.297 217.738 216.358 217.75 216.42 217.75H217.005V220.073H219.365V217.75H219.95C220.074 217.75 220.193 217.701 220.281 217.613C220.369 217.525 220.418 217.406 220.418 217.282V215.731C220.418 215.607 220.369 215.488 220.281 215.4C220.193 215.312 220.074 215.263 219.95 215.263V215.263Z" fill="#E6E6E6"/>
<path d="M223.486 229.452C221.324 226.287 220.219 222.518 220.329 218.685C220.331 218.597 220.302 218.511 220.247 218.441C220.193 218.371 220.116 218.323 220.03 218.303V217.633H216.301V218.294H216.25C216.2 218.294 216.15 218.304 216.103 218.323C216.057 218.343 216.015 218.371 215.979 218.406C215.944 218.442 215.916 218.484 215.897 218.531C215.878 218.577 215.868 218.627 215.868 218.677C215.868 218.687 215.868 218.696 215.869 218.705C216.213 222.616 215.158 226.521 212.893 229.727C212.762 229.914 212.695 230.138 212.702 230.366L213.11 242.984C213.12 243.265 213.238 243.532 213.44 243.728C213.641 243.925 213.911 244.036 214.192 244.038H222.626C222.911 244.035 223.183 243.922 223.385 243.722C223.588 243.521 223.704 243.25 223.709 242.965L223.866 230.714C223.871 230.265 223.738 229.824 223.486 229.452V229.452Z" fill="#6C63FF"/>
<path opacity="0.2" d="M219.214 215.768C219.214 216.036 219.108 216.293 218.918 216.483C218.729 216.672 218.472 216.779 218.204 216.779C217.936 216.779 217.68 216.672 217.49 216.483C217.301 216.293 217.194 216.036 217.194 215.768" fill="black"/>
<path d="M221.844 231.883H214.724V236.632H221.844V231.883Z" fill="white"/>
<path d="M331.671 264.555H325.062C324.83 264.555 324.607 264.647 324.443 264.812C324.279 264.976 324.186 265.199 324.186 265.431V268.334C324.186 268.566 324.279 268.789 324.443 268.953C324.607 269.118 324.83 269.21 325.062 269.21H326.158V273.559H330.576V269.21H331.671C331.903 269.21 332.126 269.118 332.29 268.953C332.455 268.789 332.547 268.566 332.547 268.334V265.431C332.547 265.199 332.455 264.976 332.29 264.812C332.126 264.647 331.903 264.555 331.671 264.555V264.555Z" fill="#E6E6E6"/>
<path d="M338.29 291.115C334.243 285.19 332.174 278.135 332.379 270.961C332.383 270.796 332.329 270.634 332.227 270.504C332.125 270.373 331.982 270.282 331.82 270.246V268.992H324.841V270.229H324.744C324.65 270.229 324.557 270.247 324.47 270.283C324.384 270.32 324.305 270.372 324.238 270.439C324.172 270.506 324.119 270.585 324.083 270.672C324.047 270.759 324.029 270.852 324.029 270.946C324.029 270.963 324.03 270.981 324.031 270.998C324.581 278.667 322.724 285.544 318.461 291.629C318.216 291.979 318.09 292.399 318.104 292.826L318.867 316.445C318.885 316.972 319.106 317.471 319.484 317.839C319.861 318.207 320.366 318.414 320.893 318.419H336.68C337.213 318.414 337.723 318.202 338.101 317.827C338.48 317.452 338.697 316.943 338.707 316.41L339.001 293.478C339.01 292.637 338.762 291.812 338.29 291.115V291.115Z" fill="#6C63FF"/>
<path opacity="0.2" d="M330.293 265.5C330.293 266.002 330.094 266.483 329.74 266.838C329.385 267.192 328.904 267.392 328.403 267.392C327.902 267.392 327.421 267.192 327.066 266.838C326.712 266.483 326.513 266.002 326.513 265.5" fill="black"/>
<path d="M335.791 298.961H322.05C321.847 298.961 321.646 299.005 321.461 299.09C321.276 299.175 321.112 299.299 320.979 299.453C320.847 299.608 320.749 299.789 320.693 299.985C320.638 300.18 320.625 300.386 320.656 300.587L322.732 314.091H334.656L337.178 300.632C337.216 300.428 337.209 300.219 337.157 300.018C337.105 299.817 337.009 299.63 336.877 299.471C336.744 299.311 336.578 299.183 336.391 299.095C336.203 299.006 335.998 298.961 335.791 298.961V298.961Z" fill="white"/>
<path d="M312.816 319.081H273.422C276.176 304.183 275.543 286.193 273.422 266.847H312.816C310.751 286.194 310.135 304.183 312.816 319.081Z" fill="#6C63FF"/>
<path d="M293.356 301.036C298.599 301.036 302.849 296.784 302.849 291.539C302.849 286.294 298.599 282.042 293.356 282.042C288.114 282.042 283.864 286.294 283.864 291.539C283.864 296.784 288.114 301.036 293.356 301.036Z" fill="white"/>
<path d="M151.686 154.693L160.53 153.888L166.158 140.214L156.108 134.584L151.686 154.693Z" fill="#FFB8B8"/>
<path d="M232.847 192.231C233.141 191.498 233.256 190.704 233.184 189.917C233.112 189.13 232.853 188.371 232.43 187.704C232.007 187.036 231.432 186.479 230.751 186.077C230.07 185.676 229.304 185.442 228.515 185.395L214.785 184.576L212.763 191.302L226.898 195.186C228.079 195.51 229.338 195.388 230.436 194.844C231.533 194.299 232.391 193.369 232.847 192.231V192.231Z" fill="#FFB8B8"/>
<path d="M218.103 195.299L217.952 182.677L187.453 177.808L163.957 150.847C162.734 149.445 161.045 148.533 159.202 148.28C157.359 148.028 155.487 148.453 153.933 149.476C152.992 150.095 152.198 150.914 151.609 151.874C151.019 152.834 150.647 153.911 150.519 155.031C150.391 156.15 150.511 157.284 150.869 158.353C151.227 159.421 151.816 160.397 152.593 161.213L171.977 185.08L218.103 195.299Z" fill="#575A89"/>
<path d="M144.853 337.282H152.892L172.834 247.078L193.492 274.944L205.552 335.271H213.189L211.581 270.52L184.649 201.345H158.118C150.868 214.473 145.181 228.005 151.686 241.965L144.853 337.282Z" fill="#2F2E41"/>
<path d="M200.623 342.761C200.534 343.045 200.507 343.346 200.543 343.642C200.579 343.938 200.678 344.222 200.833 344.477C200.988 344.732 201.195 344.951 201.441 345.119C201.687 345.288 201.966 345.402 202.259 345.454L221.932 348.947C222.71 349.089 223.512 348.942 224.189 348.533C224.865 348.124 225.369 347.482 225.604 346.727V346.727C225.834 346.006 225.802 345.227 225.514 344.527C225.226 343.827 224.701 343.251 224.031 342.9C219.705 340.678 215.983 337.44 213.182 333.463C211.02 335.478 208.603 335.288 206.037 333.804L203.315 334.144L200.623 342.761Z" fill="#2F2E41"/>
<path d="M141.13 342.761C141.041 343.045 141.014 343.346 141.05 343.642C141.086 343.938 141.185 344.222 141.34 344.477C141.495 344.732 141.702 344.951 141.948 345.119C142.194 345.288 142.473 345.402 142.766 345.454L162.439 348.947C163.217 349.089 164.019 348.942 164.696 348.533C165.372 348.124 165.876 347.482 166.111 346.727V346.727C166.341 346.006 166.309 345.227 166.021 344.527C165.733 343.827 165.208 343.251 164.538 342.9C160.212 340.678 156.49 337.44 153.689 333.463C151.527 335.478 149.11 335.288 146.544 333.804L143.822 334.144L141.13 342.761Z" fill="#2F2E41"/>
<path d="M166.359 145.241C172.575 145.241 177.614 140.2 177.614 133.98C177.614 127.761 172.575 122.719 166.359 122.719C160.142 122.719 155.103 127.761 155.103 133.98C155.103 140.2 160.142 145.241 166.359 145.241Z" fill="#FFB8B8"/>
<path d="M156.309 204.362L185.654 203.557L177.036 176.421C182.391 167.831 177.001 159.25 169.373 150.671L163.344 146.649L153.696 145.845C149.519 150.316 147.234 156.232 147.318 162.352C147.509 175.457 149.829 189.723 156.309 204.362Z" fill="#575A89"/>
<path d="M223.73 222.628C224.288 222.069 224.706 221.385 224.949 220.633C225.192 219.881 225.253 219.081 225.127 218.301C225 217.521 224.69 216.782 224.222 216.145C223.755 215.508 223.142 214.991 222.435 214.637L210.134 208.48L205.63 213.868L217.099 223.002C218.057 223.765 219.263 224.149 220.486 224.08C221.708 224.011 222.863 223.494 223.73 222.628V222.628Z" fill="#FFB8B8"/>
<path d="M208.968 219.645L213.792 207.981L187.666 191.501L176.666 157.466C176.093 155.695 174.899 154.192 173.303 153.235C171.708 152.278 169.82 151.931 167.989 152.26V152.26C166.881 152.459 165.829 152.899 164.91 153.55C163.99 154.2 163.224 155.044 162.666 156.023C162.109 157.002 161.773 158.092 161.682 159.215C161.592 160.338 161.749 161.468 162.143 162.523L170.579 192.095L208.968 219.645Z" fill="#575A89"/>
<path d="M147.868 129.556C147.868 133.938 150.712 140.724 154.299 143.633C156.713 145.59 159.903 145.507 161.133 142.828C162.395 140.08 166.744 133.62 174.398 129.556C184.602 124.139 170.78 114.871 161.133 116.285C153.884 117.347 147.868 122.227 147.868 129.556Z" fill="#2F2E41"/>
<path d="M154.701 123.524C159.141 123.524 162.741 119.923 162.741 115.48C162.741 111.038 159.141 107.437 154.701 107.437C150.261 107.437 146.662 111.038 146.662 115.48C146.662 119.923 150.261 123.524 154.701 123.524Z" fill="#2F2E41"/>
<path d="M163.947 112.665C163.946 110.637 163.179 108.684 161.8 107.198C160.421 105.712 158.531 104.803 156.51 104.652C156.71 104.637 156.91 104.621 157.113 104.621C159.245 104.621 161.29 105.469 162.798 106.977C164.306 108.486 165.153 110.532 165.153 112.665C165.153 114.798 164.306 116.844 162.798 118.353C161.29 119.861 159.245 120.709 157.113 120.709C156.91 120.709 156.71 120.693 156.51 120.678C158.531 120.527 160.421 119.618 161.8 118.131C163.179 116.645 163.946 114.693 163.947 112.665Z" fill="#2F2E41"/>
<path d="M166.56 138.002C167.559 138.002 168.369 136.922 168.369 135.589C168.369 134.256 167.559 133.176 166.56 133.176C165.561 133.176 164.751 134.256 164.751 135.589C164.751 136.922 165.561 138.002 166.56 138.002Z" fill="#FFB8B8"/>
<path d="M394.347 322.531H269.195L242.693 197.186H220.076V191.562H247.25L273.752 316.906H394.347V322.531Z" fill="#3F3D56"/>
<path d="M287.536 345.43C294.189 345.43 299.582 340.034 299.582 333.378C299.582 326.721 294.189 321.325 287.536 321.325C280.882 321.325 275.489 326.721 275.489 333.378C275.489 340.034 280.882 345.43 287.536 345.43Z" fill="#3F3D56"/>
<path d="M377.482 345.43C384.135 345.43 389.528 340.034 389.528 333.378C389.528 326.721 384.135 321.325 377.482 321.325C370.829 321.325 365.436 326.721 365.436 333.378C365.436 340.034 370.829 345.43 377.482 345.43Z" fill="#3F3D56"/>
<path d="M392.065 319.882H270.3L248.815 213.657H412.227C413.06 213.658 413.884 213.838 414.642 214.187C415.399 214.536 416.072 215.046 416.614 215.68C417.156 216.314 417.554 217.057 417.781 217.86C418.008 218.663 418.059 219.505 417.93 220.329L397.767 315.003C397.559 316.365 396.869 317.607 395.822 318.503C394.776 319.398 393.442 319.888 392.065 319.882V319.882ZM271.622 318.275H392.065C393.059 318.279 394.021 317.926 394.777 317.28C395.532 316.633 396.03 315.737 396.18 314.754L416.343 220.08C416.436 219.485 416.4 218.877 416.236 218.298C416.072 217.718 415.784 217.181 415.393 216.724C415.002 216.266 414.516 215.899 413.97 215.647C413.423 215.395 412.828 215.264 412.227 215.264H250.765L271.622 318.275Z" fill="#3F3D56"/>
<path d="M293.971 319.542L279.901 214.592L281.486 214.33L295.556 319.28L293.971 319.542Z" fill="#3F3D56"/>
<path d="M372.204 318.736L370.619 318.479L384.278 214.332L385.863 214.589L372.204 318.736Z" fill="#3F3D56"/>
<path d="M334.931 214.461H333.324V319.411H334.931V214.461Z" fill="#3F3D56"/>
<path d="M257.02 242.583L257.016 244.19L412.493 244.567L412.497 242.96L257.02 242.583Z" fill="#3F3D56"/>
<path d="M401.525 292.225L264.935 293.159L264.946 294.766L401.536 293.832L401.525 292.225Z" fill="#3F3D56"/>
<path d="M222.485 198.391C227.364 198.391 231.319 196.233 231.319 193.57C231.319 190.908 227.364 188.749 222.485 188.749C217.606 188.749 213.651 190.908 213.651 193.57C213.651 196.233 217.606 198.391 222.485 198.391Z" fill="#3F3D56"/>
</g>
<defs>
<clipPath id="clip0_14:10">
<rect width="418" height="349" fill="white"/>
</clipPath>
</defs>
</svg>
