<svg width="109" height="118" viewBox="0 0 109 118" fill="none" xmlns="http://www.w3.org/2000/svg">
<g clip-path="url(#clip0_14:10)">
<path d="M44.9129 27.7672H44.418V10.1794C44.418 8.84261 44.215 7.51892 43.8207 6.2839C43.4264 5.04887 42.8484 3.92671 42.1197 2.98146C41.391 2.03622 40.526 1.28641 39.574 0.774851C38.6219 0.263291 37.6015 -4.18214e-06 36.5711 0H7.84694C6.81647 -4.18214e-06 5.79608 0.263291 4.84405 0.774851C3.89201 1.28641 3.02697 2.03622 2.29831 2.98146C1.56966 3.92671 0.991654 5.04888 0.597309 6.2839C0.202964 7.51892 -1.61195e-06 8.84261 0 10.1794V106.668C-9.67165e-07 108.004 0.202965 109.328 0.597311 110.563C0.991656 111.798 1.56966 112.92 2.29832 113.866C3.02697 114.811 3.89201 115.561 4.84405 116.072C5.79608 116.584 6.81647 116.847 7.84694 116.847H36.5711C37.6015 116.847 38.6219 116.584 39.574 116.072C40.526 115.561 41.391 114.811 42.1197 113.866C42.8484 112.92 43.4264 111.798 43.8207 110.563C44.215 109.328 44.418 108.004 44.418 106.668V40.2866H44.9129V27.7672Z" fill="#E6E6E6"/>
<path d="M36.8877 2.64832H33.1382C33.3107 3.19671 33.3765 3.7917 33.3299 4.38086C33.2833 4.97002 33.1258 5.53529 32.8711 6.02685C32.6164 6.51841 32.2725 6.92119 31.8696 7.1997C31.4667 7.47821 31.0171 7.6239 30.5606 7.62395H14.1049C13.6483 7.6239 13.1988 7.47821 12.7959 7.1997C12.393 6.92119 12.049 6.51841 11.7944 6.02685C11.5397 5.53529 11.3821 4.97003 11.3356 4.38086C11.289 3.79169 11.3548 3.19671 11.5272 2.64832H8.02522C7.25568 2.64831 6.49367 2.84494 5.7827 3.22697C5.07173 3.60899 4.42573 4.16894 3.88158 4.87484C3.33743 5.58073 2.90578 6.41875 2.61129 7.34105C2.3168 8.26335 2.16522 9.25186 2.16522 10.2501V106.597C2.16522 107.595 2.3168 108.584 2.61129 109.506C2.90578 110.428 3.33743 111.266 3.88158 111.972C4.42573 112.678 5.07173 113.238 5.7827 113.62C6.49367 114.002 7.25568 114.199 8.02522 114.199H36.8877C37.6572 114.199 38.4193 114.002 39.1302 113.62C39.8412 113.238 40.4872 112.678 41.0313 111.972C41.5755 111.266 42.0071 110.428 42.3016 109.506C42.5961 108.584 42.7477 107.595 42.7477 106.597V10.2501C42.7477 9.25186 42.5961 8.26335 42.3016 7.34105C42.0071 6.41875 41.5755 5.58073 41.0313 4.87484C40.4872 4.16894 39.8412 3.60899 39.1302 3.22697C38.4193 2.84494 37.6572 2.64831 36.8877 2.64832V2.64832Z" fill="white"/>
<path d="M13.953 22.2346H12.2297C12.1691 22.2346 12.111 22.2658 12.0682 22.3214C12.0253 22.377 12.0013 22.4523 12.0013 22.5309V23.5122C12.0013 23.5908 12.0253 23.6662 12.0682 23.7218C12.111 23.7773 12.1691 23.8086 12.2297 23.8086H12.5153V25.2788H13.6675V23.8086H13.953C14.0136 23.8086 14.0717 23.7773 14.1146 23.7218C14.1574 23.6662 14.1815 23.5908 14.1815 23.5122V22.5309C14.1815 22.4523 14.1574 22.377 14.1146 22.3214C14.0717 22.2658 14.0136 22.2346 13.953 22.2346V22.2346Z" fill="#E6E6E6"/>
<path d="M15.6791 31.2149C14.6237 29.2115 14.0842 26.8262 14.1378 24.4007C14.1387 24.3447 14.1247 24.29 14.0981 24.246C14.0716 24.2019 14.034 24.1711 13.9919 24.1588V23.7348H12.1719V24.1529H12.1468C12.0973 24.153 12.0498 24.1786 12.0148 24.2241C11.9799 24.2696 11.9602 24.3312 11.9603 24.3955C11.9603 24.4014 11.9605 24.4072 11.9608 24.4131C12.1042 27.006 11.62 29.3312 10.5083 31.3888C10.4443 31.507 10.4116 31.649 10.4152 31.7934L10.6142 39.7792C10.619 39.9573 10.6766 40.1261 10.775 40.2504C10.8735 40.3748 11.0051 40.445 11.1425 40.4464H15.2591C15.3981 40.4449 15.5311 40.3731 15.6299 40.2463C15.7286 40.1195 15.7853 39.9476 15.7878 39.7674L15.8645 32.0138C15.8668 31.7293 15.8021 31.4505 15.6791 31.2149Z" fill="#E6E6E6"/>
<path d="M15.0274 33.8675H11.4442C11.3912 33.8675 11.3388 33.8824 11.2906 33.9111C11.2424 33.9398 11.1996 33.9818 11.165 34.034C11.1305 34.0862 11.1051 34.1475 11.0905 34.2137C11.0759 34.2798 11.0726 34.3493 11.0806 34.4173L11.6221 38.983H14.7313L15.389 34.4327C15.399 34.3638 15.3971 34.2928 15.3835 34.225C15.37 34.1571 15.345 34.0939 15.3105 34.0399C15.276 33.986 15.2327 33.9426 15.1838 33.9128C15.1349 33.8829 15.0815 33.8675 15.0274 33.8675V33.8675Z" fill="white"/>
<path d="M33.1366 46.157H31.4133C31.3527 46.157 31.2946 46.1882 31.2517 46.2438C31.2089 46.2994 31.1848 46.3748 31.1848 46.4534V47.4346C31.1848 47.5132 31.2089 47.5886 31.2517 47.6442C31.2946 47.6998 31.3527 47.731 31.4133 47.731H31.6989V49.2012H32.851V47.731H33.1366C33.1972 47.731 33.2553 47.6998 33.2981 47.6442C33.341 47.5886 33.3651 47.5132 33.3651 47.4346V46.4534C33.3651 46.3748 33.341 46.2994 33.2981 46.2438C33.2553 46.1882 33.1972 46.157 33.1366 46.157Z" fill="#E6E6E6"/>
<path d="M34.8626 55.1373C33.8072 53.1339 33.2677 50.7486 33.3213 48.3231C33.3223 48.2671 33.3083 48.2125 33.2817 48.1684C33.2551 48.1243 33.2176 48.0935 33.1755 48.0812V47.6572H31.3554V48.0753H31.3304C31.3058 48.0754 31.2816 48.0817 31.2589 48.0939C31.2363 48.1061 31.2157 48.124 31.1984 48.1465C31.1811 48.169 31.1673 48.1958 31.158 48.2252C31.1486 48.2546 31.1438 48.2861 31.1439 48.3179C31.1439 48.3238 31.144 48.3297 31.1444 48.3355C31.2878 50.9284 30.8036 53.2536 29.6918 55.3112C29.6279 55.4294 29.5952 55.5714 29.5987 55.7158L29.7977 63.7016C29.8025 63.8797 29.8601 64.0486 29.9586 64.1729C30.057 64.2972 30.1887 64.3674 30.3261 64.3688H34.4427C34.5816 64.3673 34.7147 64.2955 34.8134 64.1687C34.9122 64.0419 34.9688 63.8701 34.9713 63.6898L35.048 55.9363C35.0503 55.6517 34.9856 55.373 34.8626 55.1373V55.1373Z" fill="#E6E6E6"/>
<path d="M34.211 57.7899H30.6278C30.5747 57.7899 30.5223 57.8048 30.4741 57.8335C30.4259 57.8623 30.3831 57.9042 30.3486 57.9564C30.314 58.0086 30.2886 58.0699 30.274 58.1361C30.2595 58.2022 30.2561 58.2717 30.2642 58.3397L30.8056 62.9055H33.9149L34.5725 58.3551C34.5825 58.2862 34.5806 58.2153 34.5671 58.1474C34.5535 58.0795 34.5286 58.0163 34.4941 57.9624C34.4595 57.9084 34.4163 57.865 34.3673 57.8352C34.3184 57.8054 34.265 57.7899 34.211 57.7899H34.211Z" fill="white"/>
<path d="M11.5303 79.9763H10.7129C10.6841 79.9763 10.6566 79.9911 10.6362 80.0175C10.6159 80.0439 10.6045 80.0796 10.6045 80.1169V80.5823C10.6045 80.6196 10.6159 80.6554 10.6362 80.6818C10.6566 80.7081 10.6841 80.7229 10.7129 80.7229H10.8483V81.4203H11.3948V80.7229H11.5303C11.559 80.7229 11.5866 80.7081 11.6069 80.6818C11.6273 80.6554 11.6387 80.6196 11.6387 80.5823V80.1169C11.6387 80.0796 11.6273 80.0439 11.6069 80.0175C11.5866 79.9911 11.559 79.9763 11.5303 79.9763Z" fill="#E6E6E6"/>
<path d="M12.3491 84.2361C11.8484 83.2858 11.5925 82.1543 11.6179 81.0038C11.6184 80.9772 11.6118 80.9513 11.5991 80.9304C11.5865 80.9095 11.5687 80.8949 11.5488 80.889V80.6879H10.6854V80.8863H10.6735C10.6619 80.8863 10.6504 80.8893 10.6397 80.8951C10.6289 80.9008 10.6192 80.9093 10.6109 80.92C10.6027 80.9307 10.5962 80.9434 10.5918 80.9573C10.5873 80.9713 10.5851 80.9862 10.5851 81.0013C10.5851 81.0041 10.5852 81.0069 10.5853 81.0097C10.665 82.1837 10.4208 83.3563 9.89632 84.3186C9.86598 84.3746 9.85048 84.442 9.85214 84.5105L9.94653 88.2985C9.9488 88.383 9.97614 88.4631 10.0228 88.5221C10.0695 88.581 10.132 88.6143 10.1972 88.615H12.1499C12.2158 88.6143 12.2789 88.5803 12.3257 88.5201C12.3726 88.4599 12.3994 88.3784 12.4006 88.2929L12.437 84.6151C12.4381 84.4801 12.4074 84.3479 12.3491 84.2361V84.2361Z" fill="#E6E6E6"/>
<path d="M12.068 85.6285H10.2048V86.837H12.068V85.6285Z" fill="white"/>
<path d="M15.3355 79.9763H14.5181C14.4893 79.9763 14.4618 79.9911 14.4414 80.0175C14.4211 80.0439 14.4097 80.0796 14.4097 80.1169V80.5823C14.4097 80.6196 14.4211 80.6554 14.4414 80.6818C14.4618 80.7081 14.4893 80.7229 14.5181 80.7229H14.6535V81.4203H15.2V80.7229H15.3355C15.3642 80.7229 15.3918 80.7081 15.4121 80.6818C15.4325 80.6554 15.4439 80.6196 15.4439 80.5823V80.1169C15.4439 80.0796 15.4325 80.0439 15.4121 80.0175C15.3918 79.9911 15.3642 79.9763 15.3355 79.9763Z" fill="#E6E6E6"/>
<path d="M16.1542 84.2361C15.6536 83.2858 15.3977 82.1543 15.4231 81.0038C15.4236 80.9772 15.4169 80.9513 15.4043 80.9304C15.3917 80.9095 15.3739 80.8949 15.3539 80.889V80.6879H14.4906V80.8863H14.4787C14.4671 80.8863 14.4556 80.8893 14.4448 80.8951C14.4341 80.9008 14.4243 80.9093 14.4161 80.92C14.4079 80.9307 14.4014 80.9434 14.397 80.9573C14.3925 80.9713 14.3902 80.9862 14.3903 81.0013C14.3903 81.0041 14.3903 81.0069 14.3905 81.0097C14.4702 82.1837 14.226 83.3563 13.7015 84.3186C13.6712 84.3746 13.6557 84.442 13.6573 84.5105L13.7517 88.2985C13.754 88.383 13.7813 88.4631 13.828 88.5221C13.8747 88.581 13.9372 88.6143 14.0023 88.615H15.955C16.0209 88.6143 16.084 88.5803 16.1309 88.5201C16.1777 88.4599 16.2046 88.3784 16.2058 88.2929L16.2422 84.6151C16.2433 84.4801 16.2126 84.3479 16.1542 84.2361Z" fill="#E6E6E6"/>
<path d="M15.8732 85.6285H14.01V86.837H15.8732V85.6285Z" fill="white"/>
<path d="M19.1407 79.9763H18.3232C18.2945 79.9763 18.2669 79.9911 18.2466 80.0175C18.2263 80.0439 18.2149 80.0796 18.2149 80.1169V80.5823C18.2149 80.6196 18.2263 80.6554 18.2466 80.6818C18.2669 80.7081 18.2945 80.7229 18.3232 80.7229H18.4587V81.4203H19.0052V80.7229H19.1407C19.1694 80.7229 19.197 80.7081 19.2173 80.6818C19.2376 80.6554 19.249 80.6196 19.249 80.5823V80.1169C19.249 80.0796 19.2376 80.0439 19.2173 80.0175C19.197 79.9911 19.1694 79.9763 19.1407 79.9763Z" fill="#E6E6E6"/>
<path d="M19.9594 84.2361C19.4588 83.2858 19.2029 82.1543 19.2283 81.0038C19.2288 80.9772 19.2221 80.9513 19.2095 80.9304C19.1969 80.9095 19.1791 80.8949 19.1591 80.889V80.6879H18.2958V80.8863H18.2839C18.2723 80.8863 18.2607 80.8893 18.25 80.8951C18.2393 80.9008 18.2295 80.9093 18.2213 80.92C18.2131 80.9307 18.2066 80.9434 18.2021 80.9573C18.1977 80.9713 18.1954 80.9862 18.1954 81.0013C18.1954 81.0041 18.1955 81.0069 18.1957 81.0097C18.2754 82.1837 18.0312 83.3563 17.5067 84.3186C17.4763 84.3746 17.4608 84.442 17.4625 84.5105L17.5569 88.2985C17.5592 88.383 17.5865 88.4631 17.6332 88.5221C17.6799 88.581 17.7423 88.6143 17.8075 88.615H19.7602C19.8261 88.6143 19.8892 88.5803 19.9361 88.5201C19.9829 88.4599 20.0098 88.3784 20.011 88.2929L20.0474 84.6151C20.0484 84.4801 20.0178 84.3479 19.9594 84.2361Z" fill="#E6E6E6"/>
<path d="M19.6784 85.6285H17.8152V86.837H19.6784V85.6285Z" fill="white"/>
<path d="M30.1428 70.7217H28.4195C28.3895 70.7217 28.3598 70.7294 28.3321 70.7442C28.3044 70.7591 28.2792 70.781 28.258 70.8085C28.2368 70.836 28.2199 70.8687 28.2085 70.9046C28.197 70.9406 28.1911 70.9791 28.1911 71.0181V71.9993C28.1911 72.0779 28.2151 72.1533 28.258 72.2089C28.3008 72.2645 28.359 72.2957 28.4195 72.2957H28.7051V73.7659H29.8573V72.2957H30.1428C30.2034 72.2957 30.2615 72.2645 30.3044 72.2089C30.3472 72.1533 30.3713 72.0779 30.3713 71.9993V71.0181C30.3713 70.9791 30.3654 70.9406 30.3539 70.9046C30.3424 70.8687 30.3256 70.836 30.3044 70.8085C30.2832 70.781 30.258 70.7591 30.2303 70.7442C30.2026 70.7294 30.1728 70.7217 30.1428 70.7217V70.7217Z" fill="#E6E6E6"/>
<path d="M31.8689 79.702C30.8135 77.6986 30.274 75.3133 30.3276 72.8878C30.3285 72.8318 30.3145 72.7772 30.2879 72.7331C30.2613 72.689 30.2238 72.6582 30.1817 72.6459V72.2219H28.3617V72.64H28.3366C28.3121 72.6401 28.2878 72.6464 28.2652 72.6586C28.2425 72.6708 28.2219 72.6887 28.2046 72.7112C28.1873 72.7337 28.1736 72.7605 28.1642 72.7899C28.1549 72.8193 28.1501 72.8508 28.1501 72.8826C28.1501 72.8885 28.1503 72.8944 28.1506 72.9002C28.294 75.4931 27.8098 77.8183 26.6981 79.8759C26.6341 79.9941 26.6014 80.1361 26.6049 80.2805L26.804 88.2663C26.8087 88.4444 26.8664 88.6132 26.9648 88.7376C27.0633 88.8619 27.1949 88.9321 27.3323 88.9335H31.4489C31.5879 88.932 31.7209 88.8602 31.8197 88.7334C31.9184 88.6066 31.9751 88.4347 31.9776 88.2545L32.0543 80.501C32.0566 80.2164 31.9919 79.9377 31.8689 79.702Z" fill="#E6E6E6"/>
<path d="M31.2172 82.3546H27.634C27.581 82.3546 27.5286 82.3695 27.4804 82.3982C27.4322 82.427 27.3894 82.4689 27.3548 82.5211C27.3203 82.5733 27.2949 82.6346 27.2803 82.7008C27.2657 82.7669 27.2624 82.8364 27.2704 82.9044L27.8119 87.4702H30.9211L31.5788 82.9198C31.5888 82.8509 31.5869 82.78 31.5733 82.7121C31.5598 82.6442 31.5348 82.581 31.5003 82.5271C31.4658 82.4731 31.4225 82.4297 31.3736 82.3999C31.3247 82.3701 31.2713 82.3546 31.2172 82.3546V82.3546Z" fill="white"/>
<path d="M31.0836 41.4745H20.8111C21.5293 36.4374 21.3641 30.3549 20.8111 23.8136H31.0836C30.5454 30.3549 30.3845 36.4374 31.0836 41.4745Z" fill="#E6E6E6"/>
<path d="M26.0093 35.3734C27.3763 35.3734 28.4846 33.9358 28.4846 32.1624C28.4846 30.3889 27.3763 28.9513 26.0093 28.9513C24.6422 28.9513 23.534 30.3889 23.534 32.1624C23.534 33.9358 24.6422 35.3734 26.0093 35.3734Z" fill="white"/>
<path d="M21.6775 64.9152H11.405C12.1232 59.8781 11.958 53.7956 11.405 47.2543H21.6775C21.1393 53.7956 20.9784 59.8781 21.6775 64.9152Z" fill="#E6E6E6"/>
<path d="M16.6031 58.8142C17.9702 58.8142 19.0784 57.3766 19.0784 55.6032C19.0784 53.8297 17.9702 52.3921 16.6031 52.3921C15.2361 52.3921 14.1278 53.8297 14.1278 55.6032C14.1278 57.3766 15.2361 58.8142 16.6031 58.8142Z" fill="white"/>
<path d="M36.9006 42.5983H26.6281C27.3463 37.5612 27.1811 31.4787 26.6281 24.9374H36.9006C36.3623 31.4787 36.2015 37.5612 36.9006 42.5983Z" fill="#E6E6E6"/>
<path d="M31.8262 36.4973C33.1933 36.4973 34.3015 35.0597 34.3015 33.2863C34.3015 31.5128 33.1933 30.0752 31.8262 30.0752C30.4592 30.0752 29.3509 31.5128 29.3509 33.2863C29.3509 35.0597 30.4592 36.4973 31.8262 36.4973Z" fill="white"/>
<path d="M36.9006 41.7956H26.6281C27.3463 36.7585 27.1811 30.676 26.6281 24.1347H36.9006C36.3623 30.676 36.2015 36.7585 36.9006 41.7956Z" fill="#E6E6E6"/>
<path d="M31.8262 35.6945C33.1933 35.6945 34.3015 34.2569 34.3015 32.4835C34.3015 30.71 33.1933 29.2724 31.8262 29.2724C30.4592 29.2724 29.3509 30.71 29.3509 32.4835C29.3509 34.2569 30.4592 35.6945 31.8262 35.6945Z" fill="white"/>
<path d="M36.9006 42.5983H26.6281C27.3463 37.5612 27.1811 31.4787 26.6281 24.9374H36.9006C36.3623 31.4787 36.2015 37.5612 36.9006 42.5983Z" fill="#E6E6E6"/>
<path d="M31.8262 36.4973C33.1933 36.4973 34.3015 35.0597 34.3015 33.2863C34.3015 31.5128 33.1933 30.0752 31.8262 30.0752C30.4592 30.0752 29.3509 31.5128 29.3509 33.2863C29.3509 35.0597 30.4592 36.4973 31.8262 36.4973Z" fill="white"/>
<path d="M39.2521 40.5111H5.58807V45.3277H39.2521V40.5111Z" fill="#E6E6E6"/>
<path d="M39.2521 64.4336H5.58807V69.2502H39.2521V64.4336Z" fill="#E6E6E6"/>
<path d="M39.2521 88.356H5.58807V93.1726H39.2521V88.356Z" fill="#E6E6E6"/>
<path d="M97.8121 107.897L89.4254 100.202C92.2539 96.6272 94.8266 91.5375 97.2869 85.7828L105.674 93.4779C102.322 98.4152 99.4835 103.261 97.8121 107.897Z" fill="#6C63FF"/>
<path d="M97.8144 99.704C99.1815 99.704 100.29 98.2663 100.29 96.4929C100.29 94.7195 99.1815 93.2819 97.8144 93.2819C96.4474 93.2819 95.3391 94.7195 95.3391 96.4929C95.3391 98.2663 96.4474 99.704 97.8144 99.704Z" fill="white"/>
<path d="M57.3554 72.7823H56.4348C56.4024 72.7823 56.3714 72.799 56.3485 72.8287C56.3256 72.8584 56.3127 72.8987 56.3127 72.9407V73.4649C56.3127 73.4857 56.3159 73.5063 56.322 73.5255C56.3282 73.5447 56.3372 73.5621 56.3485 73.5768C56.3598 73.5915 56.3733 73.6032 56.3881 73.6112C56.4029 73.6191 56.4188 73.6232 56.4348 73.6232H56.5874V74.4086H57.2028V73.6232H57.3554C57.3878 73.6232 57.4188 73.6065 57.4417 73.5768C57.4646 73.5471 57.4775 73.5069 57.4775 73.4649V72.9407C57.4775 72.8987 57.4646 72.8584 57.4417 72.8287C57.4188 72.799 57.3878 72.7824 57.3554 72.7823V72.7823Z" fill="#E6E6E6"/>
<path d="M58.2775 77.5797C57.7137 76.5095 57.4255 75.2352 57.4541 73.9395C57.4546 73.9096 57.4471 73.8804 57.4329 73.8568C57.4187 73.8332 57.3987 73.8168 57.3762 73.8102V73.5837H56.4039V73.8071H56.3905C56.3774 73.8071 56.3644 73.8105 56.3523 73.817C56.3402 73.8235 56.3292 73.8331 56.32 73.8451C56.3107 73.8572 56.3034 73.8714 56.2984 73.8871C56.2934 73.9029 56.2909 73.9197 56.2909 73.9367C56.2909 73.9398 56.291 73.943 56.2911 73.9461C56.3809 75.2683 56.1059 76.5889 55.5152 77.6726C55.481 77.7358 55.4635 77.8116 55.4654 77.8887L55.5717 82.1549C55.5743 82.25 55.6051 82.3402 55.6577 82.4066C55.7103 82.4731 55.7806 82.5106 55.854 82.5113H58.0531C58.1274 82.5105 58.1984 82.4722 58.2512 82.4044C58.3039 82.3367 58.3342 82.2449 58.3356 82.1486L58.3765 78.0065C58.3777 77.8545 58.3432 77.7056 58.2775 77.5797V77.5797Z" fill="#6C63FF"/>
<path opacity="0.2" d="M57.1635 72.9531C57.1635 73.0437 57.1357 73.1306 57.0864 73.1947C57.037 73.2587 56.97 73.2947 56.9002 73.2947C56.8303 73.2947 56.7634 73.2587 56.714 73.1947C56.6646 73.1306 56.6368 73.0437 56.6368 72.9531" fill="black"/>
<path d="M57.8492 78.4017H55.9927V80.0072H57.8492V78.4017Z" fill="white"/>
<path d="M86.4884 89.4484H84.7651C84.7045 89.4484 84.6464 89.4796 84.6035 89.5352C84.5607 89.5908 84.5366 89.6661 84.5366 89.7448V90.726C84.5366 90.8046 84.5607 90.88 84.6035 90.9356C84.6464 90.9912 84.7045 91.0224 84.7651 91.0224H85.0506V92.4926H86.2028V91.0224H86.4884C86.549 91.0224 86.6071 90.9912 86.6499 90.9356C86.6928 90.88 86.7168 90.8046 86.7168 90.726V89.7448C86.7168 89.6661 86.6928 89.5908 86.6499 89.5352C86.6071 89.4796 86.549 89.4484 86.4884 89.4484V89.4484Z" fill="#E6E6E6"/>
<path d="M88.2144 98.4286C87.159 96.4252 86.6195 94.0399 86.6731 91.6144C86.6741 91.5585 86.6601 91.5038 86.6335 91.4597C86.6069 91.4156 86.5693 91.3848 86.5272 91.3725V90.9485H84.7072V91.3666H84.6822C84.6576 91.3667 84.6333 91.373 84.6107 91.3852C84.5881 91.3974 84.5675 91.4153 84.5502 91.4378C84.5328 91.4603 84.5191 91.4871 84.5098 91.5165C84.5004 91.5459 84.4956 91.5774 84.4956 91.6092C84.4956 91.6151 84.4958 91.621 84.4962 91.6268C84.6395 94.2197 84.1554 96.5449 83.0436 98.6025C82.9797 98.7207 82.947 98.8627 82.9505 99.0071L83.1495 106.993C83.1543 107.171 83.2119 107.34 83.3104 107.464C83.4088 107.589 83.5405 107.659 83.6778 107.66H87.7945C87.9334 107.659 88.0664 107.587 88.1652 107.46C88.2639 107.333 88.3206 107.161 88.3231 106.981L88.3998 99.2276C88.4021 98.943 88.3374 98.6643 88.2144 98.4286V98.4286Z" fill="#6C63FF"/>
<path opacity="0.2" d="M86.1291 89.7681C86.1291 89.9377 86.0772 90.1003 85.9847 90.2202C85.8923 90.3401 85.7669 90.4075 85.6362 90.4075C85.5055 90.4075 85.3801 90.3401 85.2876 90.2202C85.1952 90.1003 85.1433 89.9377 85.1433 89.7681" fill="black"/>
<path d="M87.5628 101.081H83.9796C83.9265 101.081 83.8741 101.096 83.8259 101.125C83.7777 101.154 83.7349 101.196 83.7003 101.248C83.6658 101.3 83.6404 101.361 83.6258 101.427C83.6113 101.494 83.6079 101.563 83.6159 101.631L84.1574 106.197H87.2666L87.9243 101.646C87.9343 101.578 87.9324 101.507 87.9189 101.439C87.9053 101.371 87.8804 101.308 87.8458 101.254C87.8113 101.2 87.7681 101.156 87.7191 101.127C87.6702 101.097 87.6168 101.081 87.5628 101.081V101.081Z" fill="white"/>
<path d="M81.5715 107.884H71.299C72.0172 102.847 71.852 96.7645 71.299 90.2233H81.5715C81.0333 96.7646 80.8724 102.847 81.5715 107.884Z" fill="#6C63FF"/>
<path d="M76.4972 101.783C77.8642 101.783 78.9725 100.345 78.9725 98.572C78.9725 96.7986 77.8642 95.361 76.4972 95.361C75.1301 95.361 74.0219 96.7986 74.0219 98.572C74.0219 100.345 75.1301 101.783 76.4972 101.783Z" fill="white"/>
<path d="M39.5546 52.3029L41.8607 52.0309L43.3282 47.4077L40.7077 45.5039L39.5546 52.3029Z" fill="#FFB8B8"/>
<path d="M60.7184 64.9951C60.7951 64.7471 60.8253 64.4789 60.8064 64.2127C60.7875 63.9466 60.7201 63.6901 60.6098 63.4643C60.4995 63.2386 60.3494 63.0501 60.1719 62.9143C59.9944 62.7786 59.7946 62.6995 59.5889 62.6836L56.0084 62.4066L55.4812 64.6808L59.1672 65.994C59.4752 66.1037 59.8035 66.0626 60.0897 65.8783C60.3758 65.6941 60.5996 65.3797 60.7184 64.9951V64.9951Z" fill="#FFB8B8"/>
<path d="M56.8738 66.0322L56.8344 61.7648L48.8812 60.1186L42.7542 51.0028C42.4354 50.5285 41.9949 50.2202 41.5143 50.135C41.0337 50.0497 40.5456 50.1933 40.1404 50.5392C39.895 50.7486 39.6881 51.0253 39.5343 51.3499C39.3804 51.6744 39.2834 52.0388 39.2501 52.4173C39.2168 52.7959 39.2479 53.1793 39.3414 53.5405C39.4349 53.9017 39.5884 54.2318 39.791 54.5076L44.8457 62.5772L56.8738 66.0322Z" fill="#575A89"/>
<path d="M37.7726 114.038H39.8691L45.0691 83.5394L50.4561 92.961L53.6008 113.358H55.5924L55.1731 91.4653L48.15 68.0767H41.2318C39.3412 72.5152 37.8581 77.0906 39.5546 81.8107L37.7726 114.038Z" fill="#2F2E41"/>
<path d="M52.3156 115.89C52.2925 115.987 52.2854 116.088 52.2948 116.188C52.3042 116.288 52.33 116.385 52.3703 116.471C52.4107 116.557 52.4647 116.631 52.5289 116.688C52.593 116.745 52.6658 116.783 52.7423 116.801L57.8723 117.982C58.075 118.03 58.2843 117.98 58.4607 117.842C58.6371 117.704 58.7684 117.487 58.8298 117.232V117.232C58.8896 116.988 58.8813 116.724 58.8063 116.488C58.7312 116.251 58.5943 116.056 58.4196 115.938C57.2916 115.186 56.3208 114.091 55.5905 112.747C55.0266 113.428 54.3964 113.364 53.7273 112.862L53.0175 112.977L52.3156 115.89Z" fill="#2F2E41"/>
<path d="M36.8019 115.89C36.7787 115.987 36.7716 116.088 36.7811 116.188C36.7905 116.288 36.8162 116.385 36.8566 116.471C36.897 116.557 36.951 116.631 37.0152 116.688C37.0793 116.745 37.152 116.783 37.2286 116.801L42.3586 117.982C42.5613 118.03 42.7706 117.98 42.947 117.842C43.1233 117.704 43.2546 117.487 43.3161 117.232V117.232C43.3759 116.988 43.3675 116.724 43.2925 116.488C43.2175 116.251 43.0806 116.056 42.9059 115.938C41.7779 115.186 40.8071 114.091 40.0767 112.747C39.5129 113.428 38.8827 113.364 38.2135 112.862L37.5038 112.977L36.8019 115.89Z" fill="#2F2E41"/>
<path d="M43.3806 49.1074C45.0016 49.1074 46.3156 47.4028 46.3156 45.3C46.3156 43.1972 45.0016 41.4926 43.3806 41.4926C41.7596 41.4926 40.4456 43.1972 40.4456 45.3C40.4456 47.4028 41.7596 49.1074 43.3806 49.1074Z" fill="#FFB8B8"/>
<path d="M40.76 69.0965L48.4121 68.8246L46.1648 59.6496C47.5614 56.7453 46.1559 53.8439 44.1668 50.9432L42.5944 49.5834L40.0787 49.3114C38.9895 50.8233 38.3935 52.8234 38.4156 54.8926C38.4654 59.3235 39.0702 64.1471 40.76 69.0965Z" fill="#575A89"/>
<path d="M58.341 75.2723C58.4867 75.0834 58.5957 74.8522 58.659 74.5979C58.7224 74.3435 58.7382 74.0733 58.7053 73.8095C58.6723 73.5457 58.5915 73.2957 58.4695 73.0804C58.3475 72.865 58.1877 72.6903 58.0035 72.5708L54.7956 70.4889L53.6213 72.3107L56.6119 75.399C56.8618 75.6571 57.1761 75.7868 57.495 75.7634C57.8139 75.7401 58.115 75.5652 58.341 75.2723V75.2723Z" fill="#FFB8B8"/>
<path d="M54.4918 74.2638L55.7496 70.3204L48.9369 64.7482L46.0683 53.2407C45.919 52.6419 45.6076 52.1337 45.1916 51.81C44.7756 51.4864 44.2833 51.3693 43.8058 51.4805V51.4805C43.5167 51.5478 43.2426 51.6967 43.0028 51.9165C42.7629 52.1364 42.5632 52.4219 42.4178 52.7529C42.2723 53.0839 42.1847 53.4523 42.1611 53.8321C42.1375 54.2119 42.1785 54.5937 42.2812 54.9507L44.4812 64.9491L54.4918 74.2638Z" fill="#575A89"/>
<path d="M38.5588 43.8042C38.5588 45.2857 39.3004 47.58 40.2359 48.5635C40.8654 49.2252 41.6972 49.1973 42.0179 48.2915C42.3469 47.3623 43.481 45.1781 45.4771 43.8042C48.1379 41.9726 44.5334 38.839 42.0179 39.3168C40.1276 39.6759 38.5588 41.3259 38.5588 43.8042Z" fill="#2F2E41"/>
<path d="M40.3408 41.7645C41.4986 41.7645 42.4372 40.5469 42.4372 39.0449C42.4372 37.5429 41.4986 36.3253 40.3408 36.3253C39.1829 36.3253 38.2443 37.5429 38.2443 39.0449C38.2443 40.5469 39.1829 41.7645 40.3408 41.7645Z" fill="#2F2E41"/>
<path d="M42.7517 38.093C42.7515 37.4074 42.5515 36.7472 42.1919 36.2447C41.8323 35.7423 41.3395 35.4347 40.8125 35.3837C40.8646 35.3787 40.9166 35.3734 40.9697 35.3734C41.5257 35.3734 42.0589 35.6599 42.4521 36.17C42.8453 36.68 43.0661 37.3717 43.0661 38.093C43.0661 38.8143 42.8453 39.5061 42.4521 40.0161C42.0589 40.5261 41.5257 40.8126 40.9697 40.8126C40.9166 40.8126 40.8646 40.8074 40.8125 40.8023C41.3395 40.7513 41.8323 40.4437 42.1919 39.9413C42.5515 39.4389 42.7515 38.7787 42.7517 38.093Z" fill="#2F2E41"/>
<path d="M43.433 46.6598C43.6935 46.6598 43.9047 46.2945 43.9047 45.8439C43.9047 45.3933 43.6935 45.028 43.433 45.028C43.1725 45.028 42.9613 45.3933 42.9613 45.8439C42.9613 46.2945 43.1725 46.6598 43.433 46.6598Z" fill="#FFB8B8"/>
<path d="M102.832 109.051H70.1969L63.2861 66.6702H57.3882V64.7687H64.4743L71.3851 107.149H102.832V109.051Z" fill="#3F3D56"/>
<path d="M74.9794 116.793C76.7142 116.793 78.1206 114.969 78.1206 112.718C78.1206 110.467 76.7142 108.643 74.9794 108.643C73.2445 108.643 71.8381 110.467 71.8381 112.718C71.8381 114.969 73.2445 116.793 74.9794 116.793Z" fill="#3F3D56"/>
<path d="M98.4343 116.793C100.169 116.793 101.576 114.969 101.576 112.718C101.576 110.467 100.169 108.643 98.4343 108.643C96.6994 108.643 95.293 110.467 95.293 112.718C95.293 114.969 96.6994 116.793 98.4343 116.793Z" fill="#3F3D56"/>
<path d="M102.237 108.155H70.4848L64.8825 72.2395H107.495C107.712 72.2395 107.927 72.3007 108.124 72.4187C108.322 72.5367 108.497 72.7088 108.639 72.9232C108.78 73.1375 108.884 73.3891 108.943 73.6605C109.002 73.9319 109.015 74.2167 108.982 74.4953L103.724 106.505C103.67 106.966 103.49 107.386 103.217 107.689C102.944 107.991 102.596 108.157 102.237 108.155V108.155ZM70.8296 107.612H102.237C102.496 107.613 102.747 107.494 102.944 107.275C103.141 107.056 103.271 106.753 103.31 106.421L108.568 74.411C108.592 74.2099 108.583 74.0043 108.54 73.8084C108.497 73.6125 108.422 73.4309 108.32 73.2762C108.218 73.1215 108.092 72.9972 107.949 72.9121C107.807 72.8269 107.651 72.7828 107.495 72.7828H65.3909L70.8296 107.612Z" fill="#3F3D56"/>
<path d="M76.6576 108.04L72.9886 72.5554L73.4018 72.4669L77.0707 107.951L76.6576 108.04Z" fill="#3F3D56"/>
<path d="M97.0581 107.768L96.6446 107.681L100.206 72.4677L100.62 72.5546L97.0581 107.768Z" fill="#3F3D56"/>
<path d="M87.3383 72.5112H86.9195V107.996H87.3383V72.5112Z" fill="#3F3D56"/>
<path d="M67.0219 82.0195L67.0209 82.5629L107.564 82.6902L107.565 82.1469L67.0219 82.0195Z" fill="#3F3D56"/>
<path d="M104.704 98.8037L69.086 99.1196L69.0889 99.6629L104.707 99.347L104.704 98.8037Z" fill="#3F3D56"/>
<path d="M58.0164 67.0778C59.2887 67.0778 60.32 66.348 60.32 65.4478C60.32 64.5476 59.2887 63.8178 58.0164 63.8178C56.7442 63.8178 55.7128 64.5476 55.7128 65.4478C55.7128 66.348 56.7442 67.0778 58.0164 67.0778Z" fill="#3F3D56"/>
</g>
<defs>
<clipPath id="clip0_14:10">
<rect width="109" height="118" fill="white"/>
</clipPath>
</defs>
</svg>
